<svg width="66" height="62" viewBox="0 0 66 62" fill="none" xmlns="http://www.w3.org/2000/svg">
<mask id="path-1-inside-1" fill="white">
<path fill-rule="evenodd" clip-rule="evenodd" d="M26 23.5H19V30.5H12V37.5H19V44.5H26V37.5H33V30.5H26V23.5Z"/>
</mask>
<path d="M19 23.5V21.5H17V23.5H19ZM26 23.5H28V21.5H26V23.5ZM19 30.5V32.5H21V30.5H19ZM12 30.5V28.5H10V30.5H12ZM12 37.5H10V39.5H12V37.5ZM19 37.5H21V35.5H19V37.5ZM19 44.5H17V46.5H19V44.5ZM26 44.5V46.5H28V44.5H26ZM26 37.5V35.5H24V37.5H26ZM33 37.5V39.5H35V37.5H33ZM33 30.5H35V28.5H33V30.5ZM26 30.5H24V32.5H26V30.5ZM19 25.5H26V21.5H19V25.5ZM21 30.5V23.5H17V30.5H21ZM12 32.5H19V28.5H12V32.5ZM14 37.5V30.5H10V37.5H14ZM19 35.5H12V39.5H19V35.5ZM21 44.5V37.5H17V44.5H21ZM26 42.5H19V46.5H26V42.5ZM24 37.5V44.5H28V37.5H24ZM33 35.5H26V39.5H33V35.5ZM31 30.5V37.5H35V30.5H31ZM26 32.5H33V28.5H26V32.5ZM24 23.5V30.5H28V23.5H24Z" fill="#05A1E6" mask="url(#path-1-inside-1)"/>
<path d="M9 55.5H4.5C2.84315 55.5 1.5 54.1569 1.5 52.5V21.5C1.5 19.2909 3.29086 17.5 5.5 17.5H43.1214C44.3114 17.5 45.4397 18.0299 46.1996 18.9457L63.8087 40.1669C64.2555 40.7053 64.5 41.3829 64.5 42.0826V52.5C64.5 54.1569 63.1569 55.5 61.5 55.5H57M45 55.5H22.5M41 24.5V31.5C41 33.1569 42.3431 34.5 44 34.5H52" stroke="#16579C" stroke-width="1.5"/>
<path d="M32 15C32 11.9624 29.5376 9.5 26.5 9.5C23.4624 9.5 21 11.9624 21 15M27 6V0M35 11L39.5 6.5M19 11L14.5 6.5" stroke="#05A1E6" stroke-width="1.5"/>
<circle cx="16" cy="54.5" r="6.25" stroke="#16579C" stroke-width="1.5"/>
<circle cx="51" cy="54.5" r="6.25" stroke="#16579C" stroke-width="1.5"/>
</svg>
