<svg width="53" height="54" viewBox="0 0 53 54" fill="none" xmlns="http://www.w3.org/2000/svg">
<path d="M23 29.5137L21.9781 28.946C19.7124 27.6872 17.8798 25.7732 16.7206 23.4549V23.4549C15.9158 21.8453 15.4578 20.0848 15.3761 18.2871L15.0674 11.4976C15.0229 10.5167 15.1592 9.53598 15.4697 8.60448L15.9487 7.16762C17.1737 3.49254 20.613 1.01367 24.4868 1.01367H26.5L28 1.01367C32.0624 0.774705 35.8943 3.6965 37.1811 7.55712L37.5303 8.60448C37.8408 9.53598 37.9771 10.5167 37.9326 11.4976L37.6239 18.2871C37.5422 20.0848 37.0842 21.8453 36.2794 23.4549C35.1202 25.7732 33.2876 27.6872 31.0219 28.946L30 29.5137" stroke="#16579C" stroke-width="1.5"/>
<path d="M52 52.5138V47.8081C52 43.1386 49.0519 38.9779 44.6463 37.4301L33.5 33.5138L32.5293 35.6494C31.5248 37.8593 29.999 39.7924 28.0829 41.2827L26.5 42.5138L24.9171 41.2826C23.001 39.7922 21.4752 37.8592 20.4707 35.6493L19.5 33.5137L8.35365 37.43C3.94814 38.9778 1 43.1385 1 47.808V52.5137M37.5 35.0137V35.0137C38.1606 36.6652 38.5 38.4275 38.5 40.2063V44.0137M15.1063 41.2826V39.8986C15.1063 38.1199 15.4457 36.3575 16.1063 34.706M15.1063 41.2826V41.2826C12.3377 41.722 10.1351 43.8382 9.58532 46.5871L9.5 47.0137V52.5137H13M15.1063 41.2826C17.875 41.722 20.0776 43.8382 20.6273 46.5871L20.7126 47.0137V52.5137H17.2126" stroke="#16579C" stroke-width="1.5"/>
<path d="M18.5 13.5137H23.9696C26.1486 13.5137 28.1563 12.3323 29.2145 10.4275L30 9.01367L31.2859 11.3283C32.0352 12.6771 33.457 13.5137 35 13.5137V13.5137" stroke="#05A1E6" stroke-width="1.5"/>
<path d="M20 27.5137V32.5137" stroke="#16579C" stroke-width="1.5"/>
<path d="M33.5 27.5137V32.5137" stroke="#16579C" stroke-width="1.5"/>
<path d="M42.75 48.5137C42.75 50.8609 40.8472 52.7637 38.5 52.7637C36.1528 52.7637 34.25 50.8609 34.25 48.5137C34.25 46.1665 36.1528 44.2637 38.5 44.2637C40.8472 44.2637 42.75 46.1665 42.75 48.5137Z" stroke="#16579C" stroke-width="1.5"/>
</svg>
