<svg width="100" height="89" viewBox="0 0 100 89" fill="none" xmlns="http://www.w3.org/2000/svg">
<path d="M45.8758 38.1121L44.5458 37.3732C41.5968 35.7349 39.2116 33.2437 37.7028 30.2263V30.2263C36.6554 28.1314 36.0592 25.8399 35.9528 23.5001L35.5512 14.6632C35.4931 13.3865 35.6706 12.11 36.0748 10.8976L36.6981 9.0275C38.2926 4.24418 42.769 1.0178 47.811 1.0178H50.4313L52.3836 1.01779C57.6711 0.706767 62.6584 4.50964 64.3334 9.53446L64.7878 10.8977C65.1919 12.1101 65.3694 13.3865 65.3114 14.6632L64.9097 23.5001C64.8033 25.8399 64.2071 28.1314 63.1597 30.2263C61.651 33.2437 59.2658 35.7349 56.3167 37.3732L54.9867 38.1121" stroke="#16579C" stroke-width="1.95233"/>
<path d="M83.6211 68.048V61.9234C83.6211 55.8457 79.7839 50.4304 74.0499 48.4158L59.5423 43.3185L58.2788 46.0982C56.9715 48.9744 54.9855 51.4904 52.4916 53.4301L50.4314 55.0325L48.3713 53.43C45.8773 51.4903 43.8914 48.9743 42.584 46.098L41.3206 43.3184L26.813 48.4156C21.079 50.4303 17.2418 55.8456 17.2418 61.9232V68.0479M64.7485 45.2707V45.2707C65.6083 47.4202 66.0501 49.714 66.0501 52.0291V56.9847M35.6019 53.43V51.6287C35.6019 49.3136 36.0437 47.0198 36.9035 44.8703M35.6019 53.43V53.43C31.9984 54.0019 29.1316 56.7563 28.416 60.3341L28.305 60.8894V68.0479H32.8604M35.6019 53.43C39.2055 54.0019 42.0723 56.7563 42.7878 60.3341L42.8989 60.8894V68.0479H38.3434" stroke="#16579C" stroke-width="1.95233"/>
<path d="M41.9712 35.509V42.0168" stroke="#16579C" stroke-width="1.95233"/>
<path d="M59.5425 35.509V42.0168" stroke="#16579C" stroke-width="1.95233"/>
<path d="M71.5819 62.8415C71.5819 65.8965 69.1053 68.3731 66.0503 68.3731C62.9952 68.3731 60.5186 65.8965 60.5186 62.8415C60.5186 59.7865 62.9952 57.3099 66.0503 57.3099C69.1053 57.3099 71.5819 59.7865 71.5819 62.8415Z" stroke="#16579C" stroke-width="1.95233"/>
<path d="M0.974138 74.6494H99.0259V75.948C99.0259 82.1044 94.0351 87.0951 87.8788 87.0951H12.1212C5.96486 87.0951 0.974138 82.1044 0.974138 75.948V74.6494Z" stroke="#16579C" stroke-width="1.94828"/>
<path d="M95.455 70.6446V25.1901C95.455 18.4957 90.0281 13.0688 83.3338 13.0688H71.9826M4.5459 70.6446V25.19C4.5459 18.4957 9.97275 13.0688 16.6671 13.0688H30.1722" stroke="#16579C" stroke-width="1.94828"/>
</svg>
