<svg width="54" height="95" viewBox="0 0 54 95" fill="none" xmlns="http://www.w3.org/2000/svg">
<path d="M13.7867 73.2544C13.4059 72.4934 12.607 72 11.7432 72C10.8793 72 10.3219 72.3429 9.9968 72.7108C9.67168 72.3429 9.11434 72 8.25046 72C7.38657 72 6.58771 72.4934 6.20686 73.2544C5.81672 74.0488 5.98392 74.9269 6.66202 75.6126C8.28761 77.26 9.72742 77.908 9.746 77.9164C9.82031 77.9749 9.90391 78 9.9968 78C10.0897 78 10.1733 77.9749 10.2476 77.9164C10.2662 77.908 11.6967 77.2517 13.3316 75.6126C14.019 74.9269 14.1862 74.0488 13.7867 73.2544ZM12.7835 75.1694C11.5759 76.382 10.4798 76.8209 10.0061 77.2139C9.53235 76.8125 8.43624 76.382 7.22866 75.1611C6.74563 74.6677 6.62487 74.0739 6.89425 73.5136C7.14506 73.0035 7.69311 72.6523 8.25975 72.6523C9.36515 72.6523 9.61595 73.3966 9.64382 73.4885C9.68097 73.6391 9.8296 73.7394 9.9968 73.7394C10.164 73.7394 10.3126 73.6307 10.3591 73.4885C10.3869 73.4049 10.6378 72.6523 11.7432 72.6523C12.3005 72.6523 12.8485 72.9951 13.1086 73.5136C13.3873 74.0823 13.2666 74.676 12.7835 75.1694Z" fill="#16579C"/>
<path d="M34.7738 62.392L34.5759 62.9676C34.4436 63.3525 34.8299 63.7121 35.2043 63.5525L40.5871 61.2582C43.1537 60.1642 43.7532 56.7954 41.7215 54.8832L40.2009 53.4521C39.8155 53.0894 39.1943 53.1719 38.917 53.6226C37.2174 56.3843 35.8279 59.3253 34.7738 62.392Z" stroke="#16579C" stroke-width="1.58898"/>
<path d="M41.0014 94.1377L40.631 88.5813C40.3658 84.6031 39.1863 80.7398 37.1843 77.2919L34.55 72.755C33.8616 71.5695 34.3453 70.0488 35.5921 69.4789L51.2813 62.3066C52.5152 61.7426 53.0043 60.2449 52.3411 59.0614L41.0804 38.9654C41.0283 38.8724 40.9576 38.7912 40.8727 38.7269L36.0397 35.0656C35.5003 34.6569 35.7085 33.8016 36.3754 33.6866L38.9496 33.2428C39.5269 33.1432 39.7884 32.4631 39.4264 32.0024L38.3646 30.651C38.2002 30.4417 38.1548 30.1627 38.2446 29.9121L39.605 26.1143C41.5736 20.6186 40.7664 14.5104 37.4377 9.7148V9.7148C34.0285 4.80333 27.3463 3.466 22.3096 6.68718L17.8375 9.5472C16.0407 10.6963 15.3723 12.9983 16.2743 14.931L16.7682 15.9893C17.181 16.8739 17.277 17.8736 17.0403 18.8206L16.0698 22.7026C15.81 23.7419 15.9518 24.841 16.4669 25.7804L17.9851 28.5489C18.5823 29.6378 19.7255 30.3147 20.9674 30.3147V30.3147C22.8459 30.3147 24.3688 31.8376 24.3688 33.7161V37.664L14.0622 44.213C10.4284 46.522 10.7047 51.9129 14.5554 53.8383V53.8383C15.8976 54.5094 16.1065 56.3388 14.9503 57.2952L4.8718 65.6317C2.85788 67.2975 1.54176 69.6579 1.1833 72.2468L1.02239 73.4089C0.410713 77.8266 2.67178 82.1453 6.65091 84.1594L12.696 87.2192C14.5175 88.1412 15.6656 90.0093 15.6656 92.0508V94.1377" stroke="#16579C" stroke-width="1.58898"/>
</svg>
