<svg width="26" height="36" viewBox="0 0 26 36" fill="none" xmlns="http://www.w3.org/2000/svg">
<path d="M21.8243 3.09468C19.5788 1.09685 16.4273 0 13 0C9.57273 0 6.4212 1.09685 4.17575 3.09468C1.45757 5.5234 0 9.16649 0 13.6714C0 23.5038 11.3849 35.0598 11.897 35.5299C12.2121 35.8433 12.6061 36 13 36C13.3939 36 13.8273 35.8433 14.103 35.5299C14.5758 35.0598 26 23.5038 26 13.6714C25.9606 9.16649 24.5424 5.5234 21.8243 3.09468ZM12.9606 32.161C11.897 30.9858 10.2031 29.0272 8.54851 26.6768C5.00306 21.6627 3.11213 17.1969 3.11213 13.7106C3.11213 3.9173 10.6364 3.13384 12.9606 3.13384C22.1 3.13384 22.8091 11.2427 22.8091 13.7106C22.8091 20.605 15.7576 29.1055 12.9606 32.161ZM12.9606 6.77692C9.49395 6.77692 6.69697 9.63656 6.69697 13.123C6.69697 16.6094 9.49395 19.469 12.9606 19.469C16.4273 19.469 19.2243 16.6094 19.2243 13.123C19.2243 9.59739 16.4273 6.77692 12.9606 6.77692ZM12.9606 16.6877C11.0303 16.6877 9.45455 15.0816 9.45455 13.0838C9.45455 11.086 11.0303 9.47987 12.9606 9.47987C14.8909 9.47987 16.4667 11.086 16.4667 13.0838C16.4667 15.0816 14.8909 16.6877 12.9606 16.6877Z" fill="#16579C"/>
</svg>
