<svg width="64" height="56" viewBox="0 0 64 56" fill="none" xmlns="http://www.w3.org/2000/svg">
<path d="M58.2614 30.4245C60.1198 27.6264 61.4422 24.8406 61.8822 22.161C62.8479 16.2303 61.9058 11.3391 59.0758 7.62572C56.2181 3.87696 51.8771 1.73807 45.7925 1.0864C45.2079 1.02766 44.6737 1 44.1442 1C39.838 1 35.4963 2.60143 32.1597 5.31019C28.8278 2.60143 24.4823 1 20.1844 1C19.6496 1 19.1201 1.02766 18.5315 1.0864C12.447 1.73807 8.1015 3.87696 5.24748 7.62572C2.41815 11.3393 1.47519 16.2303 2.44123 22.161C2.88815 24.8829 4.24445 27.7135 6.14783 30.5549" stroke="#16579C" stroke-width="1.63812"/>
<path d="M7.85156 32.9218C11.7869 38.0494 17.18 43.1238 21.9059 47.5697C21.9059 47.5697 25.9333 51.6128 27.142 52.649C28.0542 53.4301 30.0244 55 32.163 55C34.2985 55 36.2734 53.4301 37.1801 52.649C38.3889 51.6127 42.4162 47.5697 42.4162 47.5697C47.1817 43.0867 52.626 37.9631 56.5698 32.7915" stroke="#16579C" stroke-width="1.63812"/>
<path d="M60.8363 30.4246H58.2614H45.5998C45.081 30.4246 44.6227 30.7626 44.4691 31.2582L43.3424 34.8993L40.8294 16.9836C40.7503 16.4201 40.2814 15.9926 39.7131 15.9658C39.1456 15.9413 38.6377 16.3204 38.506 16.874L35.1388 31.0217L33.1666 22.4659C33.045 21.9382 32.5808 21.5604 32.0395 21.5486C31.496 21.5347 31.0177 21.8936 30.8728 22.4153L27.3313 35.1811L25.4401 13.0843C25.3928 12.5299 24.9655 12.0835 24.4137 12.0116C23.8616 11.9392 23.3348 12.2617 23.1469 12.7854L16.7712 30.5549H6.14788H1.18351C0.529916 30.5549 0 31.0848 0 31.7384C0 32.392 0.529916 32.9219 1.18351 32.9219H7.85228H17.6039C18.1034 32.9219 18.5493 32.6083 18.7179 32.1381L23.544 18.6876L25.534 41.9374C25.5829 42.5082 26.0333 42.9619 26.6036 43.015C26.6406 43.0184 26.6773 43.0202 26.714 43.0202C27.2407 43.0202 27.7102 42.6691 27.8536 42.153L31.9074 27.541L33.9671 36.4766C34.0906 37.0123 34.5666 37.3923 35.1163 37.3943C35.1178 37.3943 35.1191 37.3943 35.1204 37.3943C35.6683 37.3943 36.1449 37.018 36.2717 36.4847L39.3565 23.5235L41.7343 40.4757C41.8114 41.0245 42.2589 41.4464 42.8113 41.491C43.3624 41.5361 43.8731 41.1908 44.037 40.6612L46.4724 32.7916H56.5703H60.8363C61.4899 32.7916 62.0198 32.2617 62.0198 31.6081C62.0198 30.9545 61.4899 30.4246 60.8363 30.4246Z" fill="#05A1E6"/>
</svg>
