<svg width="76" height="103" viewBox="0 0 76 103" fill="none" xmlns="http://www.w3.org/2000/svg">
<path d="M68.8878 5.1665L52.2945 7.28479C49.9005 7.59042 47.6133 8.4605 45.6214 9.82336L44.6957 10.4567C41.9888 12.3088 40.1186 15.1511 39.4888 18.37L38.6444 22.686C37.4053 29.019 32.4669 33.9781 26.1391 35.2437V35.2437C13.7284 37.7258 7.86115 52.0564 14.9678 62.5293L20.3296 70.4308C23.1008 74.5148 26.7673 77.9127 31.0499 80.3658L45.2063 88.4748C56.3914 94.8818 70.4781 87.7267 71.9016 74.9154V74.9154L73.9786 50.2517C74.724 41.3993 67.94 33.711 59.0636 33.3487V33.3487C56.1575 33.2301 53.6182 31.3495 52.6573 28.6042L52.4344 27.9673C51.6717 25.7879 51.8768 23.3865 52.9981 21.3681L53.3992 20.6462C54.7439 18.2257 57.1705 16.5996 59.9204 16.2761L70.1794 15.0691" stroke="#16579C" stroke-width="2.3"/>
<path d="M59.416 16.3608V16.3608C61.9219 19.4236 63.291 23.2589 63.291 27.2161V34.0133" stroke="#16579C" stroke-width="1.29165"/>
<path d="M24.9711 35.305L24.7088 28.7456C24.5978 25.9712 25.047 23.2028 26.0297 20.6059L27.3101 17.2219M53.3874 6.88878L50.5578 5.47401C45.8601 3.12513 40.3074 3.23764 35.7087 5.77488V5.77488C32.3904 7.60566 29.8318 10.5574 28.4906 14.1019L27.3101 17.2219M15.0685 42.6243L14.1496 40.3925C12.7878 37.0853 12.504 33.4328 13.3387 29.955L13.7045 28.4307C14.311 25.9038 15.7078 23.6363 17.6917 21.958V21.958M27.3101 17.2219L17.6917 21.958M17.6917 21.958V0M27.3101 0V11.6248" stroke="#16579C" stroke-width="1.29165"/>
<path d="M36.166 85.6792V92.9985" stroke="#16579C" stroke-width="1.29165"/>
<path d="M24.9727 76.207V92.9984" stroke="#16579C" stroke-width="1.29165"/>
<path d="M18.9443 49.9438L21.3661 55.9983C23.1789 60.5303 25.8503 64.6693 29.2334 68.1877L31.1391 70.1696C33.617 72.7466 36.4471 74.9599 39.5453 76.7438L49.0827 82.235" stroke="#16579C" stroke-width="1.29165"/>
</svg>
