<svg width="56" height="55" viewBox="0 0 56 55" fill="none" xmlns="http://www.w3.org/2000/svg">
<path fill-rule="evenodd" clip-rule="evenodd" d="M1 3.50049H0.5V4.00049V54.0005V54.5005H1H25.5H26H55H55.5V54.0005V16.0005V15.5005H55H47.625V16.5005H54.5V41.0005H28V42.0005H54.5V53.5005H26H25.5H1.5V4.50049H25.5V15.5005V16.5005V41.5005H26.5V16.5005H32.875V15.5005H26.5V4.00049V3.50049H26H1Z" fill="#16579C"/>
<path fill-rule="evenodd" clip-rule="evenodd" d="M1 3.50049H0.5V4.00049V54.0005V54.5005H1H25.5H26H55H55.5V54.0005V16.0005V15.5005H55H47.625V16.5005H54.5V41.0005H28V42.0005H54.5V53.5005H26H25.5H1.5V4.50049H25.5V15.5005V16.5005V41.5005H26.5V16.5005H32.875V15.5005H26.5V4.00049V3.50049H26H1Z" fill="#16579C"/>
<path d="M23 4.5V1H4V4.5" stroke="#16579C"/>
<path d="M23 4.5V1H4V4.5" stroke="#16579C"/>
<path d="M4.5 17H12M14.5 17H22M4.5 20.5H12M14.5 20.5H22M4.5 23.5H14.5H22M4.5 27H12M14.5 27H22M4.5 30.5H12M14.5 30.5H22M4.5 34H12M14.5 34H22M4.5 37.5H12M14.5 37.5H22M4.5 41H14.5H22" stroke="#16579C"/>
<rect x="28.5" y="19.5" width="6" height="5" stroke="#16579C"/>
<rect x="36.5" y="19.5" width="6" height="5" stroke="#16579C"/>
<rect x="45.5" y="19.5" width="6" height="5" stroke="#16579C"/>
<rect x="28.5" y="26.5" width="6" height="5" stroke="#16579C"/>
<rect x="36.5" y="26.5" width="6" height="5" stroke="#16579C"/>
<rect x="45.5" y="26.5" width="6" height="5" stroke="#16579C"/>
<rect x="28.5" y="33.5" width="6" height="5" stroke="#16579C"/>
<rect x="36.5" y="33.5" width="6" height="5" stroke="#16579C"/>
<rect x="45.5" y="33.5" width="6" height="5" stroke="#16579C"/>
<path d="M5 54V49.25M51 54.5V49.25M51 49.25V44H5V49.25M51 49.25H5" stroke="#16579C"/>
<mask id="path-14-inside-1" fill="white">
<path fill-rule="evenodd" clip-rule="evenodd" d="M42 5H38V9H34V13H38V17H42V13H46V9H42V5Z"/>
</mask>
<path d="M38 5V3.85714H36.8571V5H38ZM42 5H43.1429V3.85714H42V5ZM38 9V10.1429H39.1429V9H38ZM34 9V7.85714H32.8571V9H34ZM34 13H32.8571V14.1429H34V13ZM38 13H39.1429V11.8571H38V13ZM38 17H36.8571V18.1429H38V17ZM42 17V18.1429H43.1429V17H42ZM42 13V11.8571H40.8571V13H42ZM46 13V14.1429H47.1429V13H46ZM46 9H47.1429V7.85714H46V9ZM42 9H40.8571V10.1429H42V9ZM38 6.14286H42V3.85714H38V6.14286ZM39.1429 9V5H36.8571V9H39.1429ZM34 10.1429H38V7.85714H34V10.1429ZM35.1429 13V9H32.8571V13H35.1429ZM38 11.8571H34V14.1429H38V11.8571ZM39.1429 17V13H36.8571V17H39.1429ZM42 15.8571H38V18.1429H42V15.8571ZM40.8571 13V17H43.1429V13H40.8571ZM46 11.8571H42V14.1429H46V11.8571ZM44.8571 9V13H47.1429V9H44.8571ZM42 10.1429H46V7.85714H42V10.1429ZM40.8571 5V9H43.1429V5H40.8571Z" fill="#05A1E6" mask="url(#path-14-inside-1)"/>
<path d="M11 8V11M11 14V11M11 11H15V8V14" stroke="#05A1E6" stroke-width="2"/>
<rect x="19" y="10" width="2" height="2" fill="#05A1E6"/>
<rect x="19" y="10" width="2" height="2" fill="#05A1E6"/>
<rect x="19" y="10" width="2" height="2" fill="#05A1E6"/>
<rect x="4" y="10" width="2" height="2" fill="#05A1E6"/>
<rect x="4" y="10" width="2" height="2" fill="#05A1E6"/>
<rect x="4" y="10" width="2" height="2" fill="#05A1E6"/>
</svg>
