<svg width="76" height="103" viewBox="0 0 76 103" fill="none" xmlns="http://www.w3.org/2000/svg">
<path d="M68.8878 5.30432L52.2945 7.42261C49.9005 7.72824 47.6133 8.59832 45.6214 9.96118L44.6957 10.5945C41.9888 12.4467 40.1186 15.2889 39.4888 18.5078L38.6444 22.8238C37.4053 29.1568 32.4669 34.1159 26.1391 35.3815V35.3815C13.7284 37.8636 7.86115 52.1942 14.9678 62.6672L20.3296 70.5687C23.1008 74.6526 26.7673 78.0505 31.0499 80.5037L45.2063 88.6126C56.3914 95.0196 70.4781 87.8645 71.9016 75.0532V75.0532L73.9786 50.3896C74.724 41.5371 67.94 33.8488 59.0636 33.4865V33.4865C56.1575 33.3679 53.6182 31.4873 52.6573 28.742L52.4344 28.1051C51.6717 25.9258 51.8768 23.5243 52.9981 21.5059L53.3992 20.784C54.7439 18.3636 57.1705 16.7374 59.9204 16.4139L70.1794 15.2069" stroke="#16579C" stroke-width="1.29165"/>
<path d="M59.416 16.4987V16.4987C61.9219 19.5614 63.291 23.3967 63.291 27.3539V34.1512" stroke="#16579C" stroke-width="1.29165"/>
<path d="M24.9711 35.4427L24.7088 28.8833C24.5978 26.1089 25.047 23.3405 26.0297 20.7436L27.3101 17.3596M53.3874 7.02647L50.5578 5.61171C45.8601 3.26283 40.3074 3.37534 35.7087 5.91258V5.91258C32.3904 7.74335 29.8318 10.6951 28.4906 14.2396L27.3101 17.3596M15.0685 42.762L14.1496 40.5302C12.7878 37.223 12.504 33.5705 13.3387 30.0927L13.7045 28.5684C14.311 26.0415 15.7078 23.774 17.6917 22.0957V22.0957M27.3101 17.3596L17.6917 22.0957M17.6917 22.0957V0.137695M27.3101 0.137695V11.7625" stroke="#16579C" stroke-width="1.29165"/>
<path d="M36.166 85.817V93.1363" stroke="#16579C" stroke-width="1.29165"/>
<path d="M24.9727 76.3448V93.1362" stroke="#16579C" stroke-width="1.29165"/>
<path d="M18.9443 50.0814L21.3661 56.1359C23.1789 60.6679 25.8503 64.8068 29.2334 68.3253L31.1391 70.3072C33.617 72.8842 36.4471 75.0975 39.5453 76.8813L49.0827 82.3726" stroke="#16579C" stroke-width="1.29165"/>
</svg>
