<svg width="72" height="90" viewBox="0 0 72 90" fill="none" xmlns="http://www.w3.org/2000/svg">
<path d="M23.0841 0.137695V20.2849L19.6556 23.2054C15.6322 26.6328 14.7742 32.5125 17.6505 36.9467V36.9467C20.1845 40.8534 24.9843 42.6309 29.4517 41.3169L31.3686 40.7531C33.8013 40.0377 36.3885 40.0377 38.8212 40.7531L41.9369 41.6695C45.7846 42.8012 49.9374 41.5531 52.5238 38.4878V38.4878C56 34.3678 55.6353 28.2458 51.6945 24.5677L47.1057 20.2849V0.137695M24.2723 32.2957C24.8596 29.2927 26.4328 26.4727 28.9158 24.3575L30.0581 23.3844V13.3109" stroke="#16579C" stroke-width="1.5"/>
<path d="M23.0841 89.6377V69.4905L19.6556 66.57C15.6322 63.1426 14.7742 57.2629 17.6505 52.8287V52.8287C20.1845 48.922 24.9843 47.1445 29.4517 48.4584L31.3686 49.0223C33.8013 49.7377 36.3885 49.7377 38.8212 49.0223L41.9369 48.1059C45.7846 46.9742 49.9374 48.2223 52.5238 51.2876V51.2876C56 55.4076 55.6353 61.5296 51.6945 65.2077L47.1057 69.4905V89.6377M24.2723 57.4797C24.8596 60.4827 26.4328 63.3027 28.9158 65.4179L30.0581 66.3909V76.4645" stroke="#16579C" stroke-width="1.5"/>
<path d="M19.5974 74.7672C8.53705 68.9206 1 57.3 1 43.9189C1 30.5379 8.53705 18.9172 19.5974 13.0707M52.1428 74.7672C63.2032 68.9206 70.7403 57.3 70.7403 43.9189C70.7403 30.0742 62.6718 18.114 50.9805 12.4839" stroke="#16579C" stroke-width="1.5"/>
</svg>
