<svg width="68" height="68" viewBox="0 0 68 68" fill="none" xmlns="http://www.w3.org/2000/svg">
<path d="M30.9272 60.2877C27.3363 57.6583 22.7998 56.4399 19.7271 57.4461C19.6805 57.459 19.7387 57.5886 19.8112 57.7211C19.7351 57.5886 19.6364 57.459 19.577 57.4461C16.6666 56.7122 13.7897 58.3787 14.8551 60.158C16.8998 63.5507 22.6722 66.4088 29.2112 66.5981C31.6425 66.5616 33.4425 65.5987 33.6113 64.3539C33.7861 63.0098 32.5623 61.4892 30.9272 60.2877ZM18.2869 60.8781C16.8156 59.4941 17.9896 57.8276 19.9134 57.9939C19.9507 57.997 19.9002 57.8744 19.8254 57.7412C19.9032 57.8744 19.9982 57.9966 20.0291 57.9939C22.4307 57.8078 25.5105 58.9829 26.404 60.9447C26.9485 62.1496 24.0149 63.4144 22.1745 61.1573C23.071 62.2658 20.0107 62.4986 18.2869 60.8781Z" fill="#16579C"/>
<path d="M44.6587 54.4812C37.5957 47.8321 26.2808 43.3703 15.296 44.4094C15.1127 44.4262 15.0711 44.6118 15.1127 44.791C15.0801 44.6118 14.9679 44.4262 14.779 44.4061C10.3365 43.9247 6.5207 44.6285 4.99796 46.627C3.61607 48.4492 4.61862 51.5997 6.96196 54.1792C7.15268 54.3918 7.36717 54.594 7.56753 54.803C6.05334 52.4299 5.51489 49.9398 6.4751 48.2238C7.70161 46.0393 11.1383 45.0298 14.9541 45.1466C15.0937 45.1497 15.1424 44.9734 15.1127 44.7943C15.1531 44.9734 15.2733 45.1499 15.4114 45.1499C24.8109 45.0235 35.3113 49.5379 40.0938 56.6088C41.9329 59.3345 42.0889 62.6239 40.2215 64.49C39.2845 65.4126 37.9932 66.0697 36.4803 66.4878C24.7479 66.0997 13.88 61.3131 7.56753 54.803C7.90391 55.3312 8.28846 55.852 8.71682 56.3602C11.4447 59.5833 15.4017 62.309 19.7402 64.3237C23.8095 66.2129 27.6459 67.2652 30.4022 66.9962C33.7747 67.9421 35.6339 67.544 38.1446 66.5245C43.0887 66.6243 47.0451 65.2271 48.1249 62.81C49.1699 60.4496 47.4937 57.1565 44.6587 54.4812Z" fill="#16579C"/>
<path d="M56.151 44.3928C51.9262 40.0215 45.7274 36.2928 38.3098 33.4286C30.7484 30.5143 22.559 28.7069 14.666 29.1661C14.3816 29.1865 14.2517 29.3786 14.2448 29.5671C14.2642 29.3786 14.1644 29.1832 13.8872 29.1628C7.47459 28.6714 2.16633 30.1133 0.533205 33.1299C-0.138241 34.3739 -0.146789 35.895 0.346522 37.5045C0.389249 36.5116 0.620132 35.5889 1.06497 34.7799C2.90233 31.4368 8.0664 29.8237 13.8638 29.9393C14.078 29.9431 14.2208 29.7612 14.2448 29.5704C14.2355 29.7612 14.3552 29.9431 14.571 29.9431C29.0299 29.8975 44.8279 36.8281 52.4797 47.56C55.0723 51.2012 55.9627 55.5106 54.5701 58.7471C56.9699 57.9998 58.7768 56.8316 59.683 55.2716C61.3571 52.3799 59.617 47.9911 56.151 44.3928Z" fill="#16579C"/>
<path d="M46.176 59.6995C38.3507 59.8225 30.2472 57.9502 22.6582 54.9756C15.2848 52.0809 9.00435 48.3794 4.58196 43.9811C2.53421 41.9442 0.997413 39.6432 0.346942 37.5044C0.21402 40.436 1.73015 43.9946 4.29949 47.1715C8.32964 52.1558 14.2752 56.483 20.9378 59.9222C27.4423 63.2783 33.8908 65.4229 39.3177 65.9803C45.5726 65.5952 51.1355 63.6964 53.7544 60.1842C54.0863 59.7361 54.3561 59.2549 54.5705 58.747C52.2401 59.4741 49.3496 59.8027 46.176 59.6995Z" fill="#16579C"/>
<path d="M63.0363 32.1076C58.8178 27.416 52.3371 23.3205 44.3756 20.0738C36.1071 16.7036 26.9594 14.5158 17.9661 14.8561C17.3186 14.8811 17.1794 15.5051 17.6757 15.5084C34.2198 15.5495 52.0753 23.4728 61.0153 35.6531C63.1125 38.5153 64.3564 41.7376 64.51 44.7383C65.0636 44.3031 65.5431 43.8261 65.9067 43.2915C67.8561 40.4628 66.4224 35.8786 63.0363 32.1076Z" fill="#16579C"/>
<path d="M51.6496 47.5167C35.1137 47.9486 18.7367 41.4815 8.20793 31.6692C4.47617 28.1841 1.9996 24.0012 2.63212 20.7139C2.54845 20.845 2.46036 20.9701 2.38741 21.1064C0.402124 24.7672 2.13252 30.3606 5.94608 35.2158C10.4508 40.9279 17.1572 45.9697 24.775 50.1194C32.3727 54.2592 40.1349 57.1074 47.0909 58.3224C54.3076 57.3829 60.5203 54.6973 63.1756 50.4282C64.2057 48.7687 64.6128 46.8032 64.5093 44.7385C61.8343 46.8197 57.1283 47.7496 51.6496 47.5167Z" fill="#16579C"/>
<path d="M16.8669 15.5025C17.3568 15.5095 17.7018 14.8859 17.086 14.8487C10.021 14.4502 4.32372 16.3522 2.90975 19.7452C2.78032 20.0579 2.69557 20.3824 2.63086 20.7136C4.88478 17.1714 10.5206 15.4125 16.8669 15.5025Z" fill="#16579C"/>
<path d="M63.8954 20.1438C60.5592 16.107 55.125 12.4783 48.2599 9.52419C40.9843 6.3905 32.7598 4.26937 24.5183 4.41853C23.9199 4.43173 23.6342 4.81269 24.0947 4.81599C39.317 4.93359 55.5534 12.2199 63.9413 23.3437C64.9477 24.6785 65.7652 26.0991 66.3686 27.5455C66.8427 25.3755 65.8974 22.5711 63.8954 20.1438Z" fill="#16579C"/>
<path d="M66.3692 27.5464C66.2231 28.2142 65.9442 28.8211 65.5192 29.3356C63.4779 31.7953 58.8735 32.7877 53.4484 32.4924C40.0974 33.0036 26.4648 27.9405 17.0925 19.7684C13.3075 16.4647 10.6812 12.4262 11.6353 9.23251C11.8665 8.45594 12.352 7.75374 13.0493 7.13721C11.7811 7.90989 10.7832 8.87409 10.1654 10.0244C8.36539 13.3847 9.90794 18.4933 13.3202 22.9384C21.9094 34.1223 37.329 42.2299 52.1249 45.5912C58.8261 44.3069 64.3975 41.369 66.546 37.222C67.9955 34.4176 67.7769 30.9179 66.3692 27.5464Z" fill="#16579C"/>
<path d="M23.7172 4.41498C19.0319 4.23824 15.1121 5.3074 13.0503 7.13818C15.6196 5.56444 19.3223 4.7734 23.3505 4.80913C23.7973 4.81224 24.2683 4.43556 23.7172 4.41498Z" fill="#16579C"/>
<path d="M32.4165 0C31.7872 0 31.1855 0.0388429 30.6113 0.108761C31.0602 0.0759771 31.5135 0.0597385 31.976 0.0597385C32.2887 0.0597385 32.7897 0.00334053 32.4165 0Z" fill="#16579C"/>
<path d="M60.6592 13.1593C59.8584 12.1422 58.9695 11.1738 58.0058 10.2511C58.1996 10.4911 58.3884 10.7251 58.5547 10.9679C59.8757 12.8942 59.8928 15.1578 58.5943 16.2765C57.0674 17.5848 54.3131 17.9627 51.1923 17.7111C43.7747 18.2121 35.6725 15.5998 29.4107 10.7358C26.7227 8.64102 24.637 6.07144 24.9117 3.74793C25.1262 1.97191 27.3765 0.505477 30.6123 0.108887C26.9906 0.362922 23.953 1.6231 22.7996 3.81095C21.5518 6.18185 22.5937 9.74952 24.8969 12.8769C30.789 20.8607 41.7441 27.0593 53.3794 30.4103C58.1996 29.0593 61.9683 26.4498 63.1698 23.2941C64.3507 20.177 63.1388 16.3252 60.6592 13.1593Z" fill="#16579C"/>
<path d="M49.1593 3.94069C44.3784 1.69418 38.7655 0.0737383 32.9741 0.00789887C32.5458 0.000907063 32.1728 0.0599453 32.5015 0.0641404C41.8664 0.213594 51.6053 4.12241 58.0065 10.2512C56.1572 7.96071 53.1132 5.80374 49.1593 3.94071" fill="#16579C"/>
<path d="M51.8425 7.20376C49.2861 4.36217 45.2696 2.41738 41.1703 2.23045C41.0427 2.22346 41.4253 2.49886 41.5882 2.52303C45.7849 3.02732 48.708 5.41337 48.1154 6.46544C47.5866 7.38875 45.3533 6.21742 45.3533 6.21742C45.3533 6.21742 44.3824 7.12082 42.6196 6.4198C40.5161 5.58321 39.3431 2.83582 41.3931 2.51973C41.5114 2.49883 41.087 2.22656 40.968 2.22656C38.2536 2.32017 37.0226 5.03659 38.3031 7.0947C40.2614 10.2476 44.4862 13.3821 50.5952 15.9077C54.1696 13.8966 53.8483 9.43667 51.8425 7.20376Z" fill="#16579C"/>
</svg>
