<svg width="86" height="85" viewBox="0 0 86 85" fill="none" xmlns="http://www.w3.org/2000/svg">
<mask id="path-1-inside-1" fill="white">
<path fill-rule="evenodd" clip-rule="evenodd" d="M29.982 0H55.8881V19.6615L72.9152 9.83094L85.8683 32.2663L68.8401 42.0975L85.8679 51.9286L72.9149 74.3639L55.8881 64.5335V84.1949H29.982V64.5322L12.9534 74.3637L0.0003125 51.9284L17.0278 42.0975L0 32.2665L12.9531 9.83114L29.982 19.6628V0Z"/>
</mask>
<path d="M55.8881 0H57.8311V-1.94296H55.8881V0ZM29.982 0V-1.94296H28.039V0H29.982ZM55.8881 19.6615H53.9451V23.0268L56.8596 21.3442L55.8881 19.6615ZM72.9152 9.83094L74.5978 8.85946L73.6264 7.17681L71.9437 8.14829L72.9152 9.83094ZM85.8683 32.2663L86.8397 33.9489L88.5224 32.9775L87.5509 31.2948L85.8683 32.2663ZM68.8401 42.0975L67.8686 40.4149L64.9542 42.0975L67.8686 43.7802L68.8401 42.0975ZM85.8679 51.9286L87.5506 52.9L88.5221 51.2174L86.8394 50.2459L85.8679 51.9286ZM72.9149 74.3639L71.9434 76.0466L73.6261 77.018L74.5975 75.3354L72.9149 74.3639ZM55.8881 64.5335L56.8596 62.8508L53.9451 61.1682V64.5335H55.8881ZM55.8881 84.1949V86.1378H57.8311V84.1949H55.8881ZM29.982 84.1949H28.039V86.1378H29.982V84.1949ZM29.982 64.5322H31.925V61.1669L29.0105 62.8496L29.982 64.5322ZM12.9534 74.3637L11.2707 75.3352L12.2422 77.0179L13.9248 76.0464L12.9534 74.3637ZM0.0003125 51.9284L-0.971166 50.2457L-2.65382 51.2172L-1.68234 52.8998L0.0003125 51.9284ZM17.0278 42.0975L17.9993 43.7802L20.9138 42.0975L17.9993 40.4149L17.0278 42.0975ZM0 32.2665L-1.68265 31.295L-2.65413 32.9777L-0.971479 33.9491L0 32.2665ZM12.9531 9.83114L13.9245 8.14849L12.2419 7.17701L11.2704 8.85966L12.9531 9.83114ZM29.982 19.6628L29.0105 21.3455L31.925 23.0281V19.6628H29.982ZM55.8881 -1.94296H29.982V1.94296H55.8881V-1.94296ZM57.8311 19.6615V0H53.9451V19.6615H57.8311ZM56.8596 21.3442L73.8867 11.5136L71.9437 8.14829L54.9166 17.9789L56.8596 21.3442ZM71.2326 10.8024L84.1856 33.2378L87.5509 31.2948L74.5978 8.85946L71.2326 10.8024ZM84.8968 30.5836L67.8686 40.4149L69.8116 43.7802L86.8397 33.9489L84.8968 30.5836ZM86.8394 50.2459L69.8116 40.4149L67.8686 43.7802L84.8965 53.6112L86.8394 50.2459ZM74.5975 75.3354L87.5506 52.9L84.1853 50.9571L71.2322 73.3924L74.5975 75.3354ZM54.9166 66.2161L71.9434 76.0466L73.8864 72.6813L56.8596 62.8508L54.9166 66.2161ZM57.8311 84.1949V64.5335H53.9451V84.1949H57.8311ZM29.982 86.1378H55.8881V82.2519H29.982V86.1378ZM28.039 64.5322V84.1949H31.925V64.5322H28.039ZM29.0105 62.8496L11.9819 72.6811L13.9248 76.0464L30.9535 66.2149L29.0105 62.8496ZM14.636 73.3922L1.68296 50.9569L-1.68234 52.8998L11.2707 75.3352L14.636 73.3922ZM0.971791 53.611L17.9993 43.7802L16.0564 40.4149L-0.971166 50.2457L0.971791 53.611ZM-0.971479 33.9491L16.0564 43.7802L17.9993 40.4149L0.971479 30.5838L-0.971479 33.9491ZM11.2704 8.85966L-1.68265 31.295L1.68265 33.238L14.6357 10.8026L11.2704 8.85966ZM30.9535 17.9802L13.9245 8.14849L11.9816 11.5138L29.0105 21.3455L30.9535 17.9802ZM28.039 0V19.6628H31.925V0H28.039Z" fill="#16579C" mask="url(#path-1-inside-1)"/>
<path d="M47.4687 24.6106H42.5238C40.7137 24.6106 38.9778 25.3297 37.6979 26.6096V26.6096C35.7673 28.5401 35.1731 31.4354 36.187 33.9703L37.1062 36.2683M47.4687 42.0972L48.3976 43.3976C49.7953 45.3545 49.8757 47.9609 48.6011 50.0001V50.0001C47.8691 51.1713 46.7519 52.0509 45.4416 52.4877L41.2478 53.8856C40.2329 54.2239 39.3291 54.8317 38.6329 55.6439L38.5631 55.7254C36.9255 57.6358 36.7186 60.3885 38.0522 62.5223V62.5223C38.7 63.5587 39.6609 64.3621 40.7957 64.816L42.2875 65.4127" stroke="#05A1E6" stroke-width="2.76049"/>
<path d="M42.9351 29.792V49.8692" stroke="#05A1E6" stroke-width="2.76049"/>
<path d="M42.9351 58.2888V68.6513" stroke="#05A1E6" stroke-width="2.76049"/>
<circle cx="42.9353" cy="16.8389" r="2.59061" fill="#05A1E6"/>
</svg>
