<svg width="63" height="61" viewBox="0 0 63 61" fill="none" xmlns="http://www.w3.org/2000/svg">
<mask id="path-1-inside-1" fill="white">
<path fill-rule="evenodd" clip-rule="evenodd" d="M21.7221 0H40.4913V14.2452L52.8279 7.12266L62.2125 23.3773L49.8754 30.5001L62.2122 37.6227L52.8276 53.8773L40.4913 46.755V61H21.7221V46.7544L9.38493 53.8773L0.000317097 37.6227L12.337 30.5001L0 23.3773L9.38461 7.12271L21.7221 14.2457V0Z"/>
</mask>
<path d="M40.4913 0H41.899V-1.40769H40.4913V0ZM21.7221 0V-1.40769H20.3144V0H21.7221ZM40.4913 14.2452H39.0836V16.6834L41.1952 15.4643L40.4913 14.2452ZM52.8279 7.12266L54.047 6.41882L53.3431 5.19972L52.124 5.90356L52.8279 7.12266ZM62.2125 23.3773L62.9163 24.5964L64.1354 23.8925L63.4316 22.6734L62.2125 23.3773ZM49.8754 30.5001L49.1716 29.281L47.0601 30.5001L49.1716 31.7192L49.8754 30.5001ZM62.2122 37.6227L63.4313 38.3266L64.1351 37.1075L62.916 36.4036L62.2122 37.6227ZM52.8276 53.8773L52.1237 55.0964L53.3428 55.8003L54.0466 54.5812L52.8276 53.8773ZM40.4913 46.755L41.1952 45.5359L39.0836 44.3168V46.755H40.4913ZM40.4913 61V62.4077H41.899V61H40.4913ZM21.7221 61H20.3144V62.4077H21.7221V61ZM21.7221 46.7544H23.1298V44.3162L21.0182 45.5353L21.7221 46.7544ZM9.38493 53.8773L8.16583 54.5811L8.86968 55.8002L10.0888 55.0964L9.38493 53.8773ZM0.000317097 37.6227L-0.703529 36.4036L-1.92263 37.1074L-1.21878 38.3265L0.000317097 37.6227ZM12.337 30.5001L13.0408 31.7192L15.1524 30.5001L13.0408 29.281L12.337 30.5001ZM0 23.3773L-1.2191 22.6735L-1.92294 23.8926L-0.703846 24.5964L0 23.3773ZM9.38461 7.12271L10.0885 5.90361L8.86936 5.19976L8.16552 6.41886L9.38461 7.12271ZM21.7221 14.2457L21.0182 15.4648L23.1298 16.6839V14.2457H21.7221ZM40.4913 -1.40769H21.7221V1.40769H40.4913V-1.40769ZM41.899 14.2452V0H39.0836V14.2452H41.899ZM41.1952 15.4643L53.5317 8.34176L52.124 5.90356L39.7875 13.0261L41.1952 15.4643ZM51.6088 7.82651L60.9934 24.0811L63.4316 22.6734L54.047 6.41882L51.6088 7.82651ZM61.5086 22.1582L49.1716 29.281L50.5793 31.7192L62.9163 24.5964L61.5086 22.1582ZM62.916 36.4036L50.5793 29.281L49.1716 31.7192L61.5083 38.8418L62.916 36.4036ZM54.0466 54.5812L63.4313 38.3266L60.9931 36.9189L51.6085 53.1735L54.0466 54.5812ZM39.7875 47.9741L52.1237 55.0964L53.5314 52.6582L41.1952 45.5359L39.7875 47.9741ZM41.899 61V46.755H39.0836V61H41.899ZM21.7221 62.4077H40.4913V59.5923H21.7221V62.4077ZM20.3144 46.7544V61H23.1298V46.7544H20.3144ZM21.0182 45.5353L8.68109 52.6582L10.0888 55.0964L22.4259 47.9735L21.0182 45.5353ZM10.604 53.1734L1.21941 36.9188L-1.21878 38.3265L8.16583 54.5811L10.604 53.1734ZM0.704163 38.8418L13.0408 31.7192L11.6331 29.281L-0.703529 36.4036L0.704163 38.8418ZM-0.703846 24.5964L11.6331 31.7192L13.0408 29.281L0.703846 22.1582L-0.703846 24.5964ZM8.16552 6.41886L-1.2191 22.6735L1.2191 24.0812L10.6037 7.82655L8.16552 6.41886ZM22.4259 13.0267L10.0885 5.90361L8.68077 8.34181L21.0182 15.4648L22.4259 13.0267ZM20.3144 0V14.2457H23.1298V0H20.3144Z" fill="#16579C" mask="url(#path-1-inside-1)"/>
<path d="M34.3915 17.8308H30.8089C29.4974 17.8308 28.2397 18.3518 27.3124 19.2791V19.2791C25.9137 20.6778 25.4831 22.7754 26.2178 24.612L26.8838 26.277M34.3915 30.5L35.0644 31.4422C36.0771 32.8599 36.1353 34.7483 35.2119 36.2257V36.2257C34.6816 37.0743 33.8721 37.7116 32.9228 38.028L29.8844 39.0409C29.1491 39.286 28.4942 39.7263 27.9898 40.3147L27.9392 40.3738C26.7528 41.7579 26.6029 43.7523 27.5691 45.2982V45.2982C28.0385 46.0491 28.7346 46.6312 29.5568 46.96L30.6376 47.3923" stroke="#05A1E6" stroke-width="2"/>
<path d="M31.1069 21.5847V36.1309" stroke="#05A1E6" stroke-width="2"/>
<path d="M31.1069 42.2307V49.7384" stroke="#05A1E6" stroke-width="2"/>
<circle cx="31.1069" cy="12.1999" r="1.87692" fill="#05A1E6"/>
</svg>
