<svg width="56" height="58" viewBox="0 0 56 58" fill="none" xmlns="http://www.w3.org/2000/svg">
<mask id="path-1-inside-1" fill="white">
<path fill-rule="evenodd" clip-rule="evenodd" d="M45.5 11.5H35.5V21.5H25.5V31.5H35.5V41.5H45.5V31.5H55.5V21.5H45.5V11.5Z"/>
</mask>
<path d="M35.5 11.5V9.5H33.5V11.5H35.5ZM45.5 11.5H47.5V9.5H45.5V11.5ZM35.5 21.5V23.5H37.5V21.5H35.5ZM25.5 21.5V19.5H23.5V21.5H25.5ZM25.5 31.5H23.5V33.5H25.5V31.5ZM35.5 31.5H37.5V29.5H35.5V31.5ZM35.5 41.5H33.5V43.5H35.5V41.5ZM45.5 41.5V43.5H47.5V41.5H45.5ZM45.5 31.5V29.5H43.5V31.5H45.5ZM55.5 31.5V33.5H57.5V31.5H55.5ZM55.5 21.5H57.5V19.5H55.5V21.5ZM45.5 21.5H43.5V23.5H45.5V21.5ZM35.5 13.5H45.5V9.5H35.5V13.5ZM37.5 21.5V11.5H33.5V21.5H37.5ZM25.5 23.5H35.5V19.5H25.5V23.5ZM27.5 31.5V21.5H23.5V31.5H27.5ZM35.5 29.5H25.5V33.5H35.5V29.5ZM37.5 41.5V31.5H33.5V41.5H37.5ZM45.5 39.5H35.5V43.5H45.5V39.5ZM43.5 31.5V41.5H47.5V31.5H43.5ZM55.5 29.5H45.5V33.5H55.5V29.5ZM53.5 21.5V31.5H57.5V21.5H53.5ZM45.5 23.5H55.5V19.5H45.5V23.5ZM43.5 11.5V21.5H47.5V11.5H43.5Z" fill="#05A1E6" mask="url(#path-1-inside-1)"/>
<path d="M0 23.5H4M8.5 23.5H19M4 29.5H8M12.5 29.5H23M13.5 18.5V7H38.5V9.5M38.5 43V46H13.5V35.5M8 18.5V4C8 2.34315 9.34315 1 11 1H40C41.6569 1 43 2.34315 43 4V9.5M43 44V53.5C43 55.1569 41.6569 56.5 40 56.5H11C9.34315 56.5 8 55.1569 8 53.5V33.5M21.5 51H30" stroke="#16579C" stroke-width="1.5"/>
</svg>
