<svg width="99" height="89" viewBox="0 0 99 89" fill="none" xmlns="http://www.w3.org/2000/svg">
<path d="M26.3766 31.872V31.872C28.3731 35.366 32.2747 37.3167 36.2678 36.8176L39.5649 36.4055M28.0251 61.5456L28.3326 59.4701C29.0757 54.454 33.7162 50.9693 38.7406 51.6544V51.6544M35.0314 64.8427V64.8427C40.4394 66.4886 46.2243 63.8326 48.5009 58.6584L49.0439 57.4243M49.0439 57.4243V79.9244C49.0439 81.8863 48.302 83.7756 46.9671 85.2133V85.2133C44.9574 87.3774 41.8949 88.2157 39.0633 87.3767L38.9049 87.3298C35.2185 86.2375 32.8216 82.6877 33.1861 78.8601L33.3828 76.7946V76.7946C32.9902 80.7208 28.7347 82.9888 25.2566 81.1255L23.7187 80.3016C22.0311 79.3976 20.9046 77.7126 20.7141 75.8076L20.6531 75.1975C20.377 72.4369 21.8344 69.7927 24.3159 68.5519V68.5519L21.7573 69.0088C16.89 69.878 12.2984 66.4611 11.7331 61.5492V61.5492C11.3319 58.063 13.0959 54.6843 16.1856 53.0205L21.0188 50.418L14.8864 53.7201C12.1662 55.1848 8.80729 54.6918 6.62268 52.5072L5.99379 51.8783C2.63009 48.5146 2.47725 43.11 5.64548 39.5616V39.5616C8.38375 36.4948 12.8565 35.6822 16.4985 37.5899L18.9582 38.8783L14.0287 36.4136C9.09139 33.9449 7.23353 27.8409 9.95827 23.0402V23.0402C12.1074 19.2535 16.5291 17.3788 20.745 18.4668L26.3766 19.9201L22.9712 18.3593C19.4459 16.7435 17.9965 12.5018 19.7959 9.06656V9.06656C20.5824 7.565 21.9038 6.41326 23.4987 5.8391L24.55 5.4606C28.1581 4.16172 32.0924 6.29615 32.9707 10.0289V10.0289L33.292 7.77999C33.6099 5.55485 34.9232 3.59536 36.8606 2.45572V2.45572C39.2753 1.03531 42.2856 1.10252 44.6345 2.6293L49.0439 5.49544V31.4599M49.0439 57.4243V31.4599M37.9163 23.6293V23.6293C40.943 23.1249 43.9927 24.3881 45.7762 26.885L49.0439 31.4599" stroke="#16579C" stroke-width="1.5"/>
<path d="M72.1234 31.8721V31.8721C70.1269 35.3661 66.2253 37.3169 62.2322 36.8177L58.9351 36.4056M70.4749 61.5458L70.1674 59.4702C69.4243 54.4541 64.7838 50.9694 59.7594 51.6546V51.6546M63.4686 64.8428V64.8428C58.0606 66.4888 52.2757 63.8327 49.9991 58.6585L49.4561 57.4244M49.4561 57.4244V79.9245C49.4561 81.8864 50.198 83.7757 51.5329 85.2134V85.2134C53.5426 87.3776 56.6051 88.2159 59.4367 87.3768L59.5951 87.3299C63.2815 86.2377 65.6784 82.6878 65.3139 78.8603L65.1172 76.7947V76.7947C65.5098 80.7209 69.7653 82.9889 73.2434 81.1256L74.7813 80.3017C76.4689 79.3977 77.5954 77.7127 77.7859 75.8077L77.8469 75.1976C78.123 72.4371 76.6656 69.7928 74.1841 68.552V68.552L76.7427 69.0089C81.61 69.8781 86.2016 66.4612 86.7669 61.5493V61.5493C87.1681 58.0631 85.4041 54.6844 82.3144 53.0207L77.4812 50.4182L83.6136 53.7202C86.3338 55.185 89.6927 54.692 91.8773 52.5074L92.5062 51.8785C95.8699 48.5148 96.0228 43.1102 92.8545 39.5617V39.5617C90.1162 36.4949 85.6435 35.6823 82.0015 37.59L79.5418 38.8784L84.4713 36.4137C89.4086 33.945 91.2665 27.841 88.5417 23.0403V23.0403C86.3926 19.2537 81.9709 17.379 77.755 18.4669L72.1234 19.9202L75.5288 18.3595C79.0541 16.7437 80.5035 12.5019 78.7041 9.06668V9.06668C77.9176 7.56512 76.5962 6.41338 75.0013 5.83922L73.95 5.46072C70.3419 4.16184 66.4076 6.29627 65.5293 10.029V10.029L65.208 7.78011C64.8901 5.55497 63.5768 3.59548 61.6394 2.45584V2.45584C59.2247 1.03543 56.2144 1.10265 53.8655 2.62942L49.4561 5.49556V31.46M49.4561 57.4244V31.46M60.5837 23.6294V23.6294C57.557 23.125 54.5073 24.3882 52.7238 26.8851L49.4561 31.46" stroke="#16579C" stroke-width="1.5"/>
</svg>
