<svg width="84" height="95" viewBox="0 0 84 95" fill="none" xmlns="http://www.w3.org/2000/svg">
<path d="M42 78.1367C42 75.3753 44.2386 73.1367 47 73.1367H78C80.7614 73.1367 83 75.3753 83 78.1367V88.1367C83 90.8981 80.7614 93.1367 78 93.1367H47C44.2386 93.1367 42 90.8981 42 88.1367V78.1367Z" stroke="#16579C" stroke-width="2"/>
<circle cx="62.5" cy="53.6367" r="7.5" stroke="#16579C" stroke-width="2"/>
<path d="M52.25 54.1367H49.5C45.3579 54.1367 42 57.4946 42 61.6367V61.6367C42 65.7789 45.3579 69.1367 49.5 69.1367H75.5C79.6421 69.1367 83 65.7789 83 61.6367V61.6367C83 57.4946 79.6421 54.1367 75.5 54.1367H72.75" stroke="#16579C"/>
<path d="M42.6087 83.2609C19.6288 83.2609 1 64.632 1 41.6522C1 18.6723 19.6288 1 42.6087 1H78" stroke="#16579C" stroke-width="1.91304"/>
<path d="M46.273 7.47885C46.0633 6.11589 47.1178 4.88672 48.4968 4.88672H74.5032C75.8822 4.88672 76.9367 6.11589 76.727 7.47885L77.4683 7.59289L76.727 7.47885L75.6501 14.4788C75.4812 15.5765 74.5368 16.3867 73.4262 16.3867H49.5738C48.4632 16.3867 47.5188 15.5765 47.3499 14.4788L46.273 7.47885Z" stroke="#16579C" stroke-width="1.5"/>
<path d="M42 78.6367H82.5M42 88.1367H82.5" stroke="#16579C"/>
</svg>
