<svg width="60" height="89" viewBox="0 0 60 89" fill="none" xmlns="http://www.w3.org/2000/svg">
<path d="M3.21887 20.2339L2.58012 20.627L3.21887 20.2339C2.40481 18.9111 2.46977 17.2277 3.38335 15.9715C4.10448 14.98 5.2565 14.3934 6.48255 14.3934H9.99599C11.3502 14.3934 12.4061 13.2204 12.2643 11.8737L11.6526 6.06211C11.6678 5.60816 11.9882 5.03294 12.8967 4.38855C13.8086 3.7418 15.1767 3.12866 16.9348 2.60123C20.4414 1.54924 25.3307 0.887695 30.7633 0.887695C36.1959 0.887695 41.0852 1.54924 44.5918 2.60123C46.3499 3.12866 47.718 3.7418 48.6299 4.38855C49.5522 5.04273 49.8685 5.62562 49.8745 6.08271L49.6339 11.8997C49.5083 13.2355 50.5594 14.3934 51.9048 14.3934H55.4183C56.6443 14.3934 57.7963 14.98 58.5175 15.9715C59.431 17.2277 59.496 18.9111 58.682 20.2339L58.5581 20.4352L59.1969 20.8282L58.5581 20.4352C57.7965 21.6728 56.4473 22.4268 54.994 22.4268H51.7856C50.5041 22.4268 49.5029 23.5291 49.6213 24.8012L49.8745 31.1342C49.8687 31.5913 49.5525 32.1744 48.6299 32.8288C47.718 33.4756 46.3499 34.0887 44.5918 34.6161C41.0852 35.6681 36.1959 36.3297 30.7633 36.3297C25.3307 36.3297 20.4414 35.6681 16.9348 34.6161C15.1767 34.0887 13.8086 33.4756 12.8967 32.8288C11.9868 32.1834 11.6668 31.6074 11.6525 31.1531L12.2768 24.8279C12.2769 24.827 12.277 24.8261 12.2771 24.8252C12.4106 23.543 11.4048 22.4268 10.1152 22.4268H6.9068C5.45355 22.4268 4.10435 21.6728 3.3427 20.4352L3.21887 20.2339Z" stroke="#16579C" stroke-width="1.5"/>
<path d="M49.7242 30.7241L49.482 36.5802C49.3868 37.4841 50.0955 38.2714 51.0044 38.2714H54.5179C55.9839 38.2714 57.3614 38.9729 58.2236 40.1585C59.316 41.6605 59.3937 43.6733 58.4203 45.2551L58.2965 45.4563C57.3983 46.9158 55.8073 47.8048 54.0936 47.8048H50.8852C50.04 47.8048 49.381 48.5369 49.4695 49.3774L49.7242 55.7493C49.7242 59.04 40.832 61.7077 29.8629 61.7077C18.8938 61.7077 10.0016 59.04 10.0016 55.7493L10.6306 49.3774C10.719 48.5369 10.06 47.8048 9.21484 47.8048H6.00641C4.29271 47.8048 2.70171 46.9158 1.80357 45.4563L1.67973 45.2551C0.706359 43.6733 0.784034 41.6605 1.87641 40.1585C2.73867 38.9729 4.11616 38.2714 5.58216 38.2714H9.09559C10.0045 38.2714 10.7132 37.4841 10.6181 36.5802L10.0016 30.7241M17.3168 33.9019L17.9457 44.2298L17.3168 54.1768" stroke="#16579C" stroke-width="1.5"/>
<path d="M49.7242 56.941L49.482 62.7972C49.3868 63.7011 50.0955 64.4883 51.0044 64.4883H54.5179C55.9839 64.4883 57.3614 65.1898 58.2236 66.3754C59.316 67.8774 59.3937 69.8902 58.4203 71.472L58.2965 71.6732C57.3983 73.1327 55.8073 74.0217 54.0936 74.0217H50.8852C50.04 74.0217 49.381 74.7538 49.4695 75.5943L49.7242 81.9662C49.7242 85.257 40.832 87.9246 29.8629 87.9246C18.8938 87.9246 10.0016 85.257 10.0016 81.9662L10.6306 75.5943C10.719 74.7538 10.06 74.0217 9.21484 74.0217H6.00641C4.29271 74.0217 2.70171 73.1327 1.80357 71.6732L1.67973 71.472C0.706359 69.8902 0.784034 67.8774 1.87641 66.3754C2.73867 65.1898 4.11616 64.4883 5.58216 64.4883H9.09559C10.0045 64.4883 10.7132 63.7011 10.6181 62.7972L10.0016 56.941M17.3168 60.1188L17.9457 70.4467L17.3168 80.3937" stroke="#16579C" stroke-width="1.5"/>
</svg>
