<svg width="42" height="42" viewBox="0 0 42 42" fill="none" xmlns="http://www.w3.org/2000/svg">
<path d="M8.65672 4.45656C8.70309 4.42994 8.70308 4.42996 8.74945 4.40334L13.5825 2.02954C14.2681 1.66676 15.1036 1.61872 15.8867 1.90895C16.5968 2.17944 17.1747 2.6491 17.5474 3.29825C17.574 3.34462 17.6006 3.39101 17.6272 3.43737L20.1821 9.33773C20.9077 10.709 20.4169 12.3778 19.0723 13.1498C18.9795 13.203 18.8868 13.2562 18.8039 13.273L16.4778 14.0535C16.4361 14.7864 16.9247 17.0335 19.5599 21.624C22.1951 26.2144 23.8893 27.7694 24.5432 28.103L26.3901 26.4879C26.4464 26.4248 26.5391 26.3715 26.6319 26.3183C27.9765 25.5464 29.6552 26.0006 30.4834 27.2822L34.2902 32.4639C34.3169 32.5102 34.3435 32.5566 34.3701 32.603C35.1686 33.994 34.7479 35.8384 33.4762 36.6301L28.9892 39.6066C28.9429 39.6332 28.9429 39.6332 28.8965 39.6598C28.0619 40.139 26.9709 40.1179 25.8396 39.8118C23.8325 39.2687 21.7507 37.8437 20.6748 37.0434C18.5861 35.4991 14.6268 32.0386 11.3262 26.289C8.87728 22.0231 7.27288 17.2417 6.75342 12.7929C6.5538 10.7807 6.24557 5.84071 8.65672 4.45656ZM13.9494 24.8447C18.8738 33.4228 25.9607 37.338 27.4158 37.0267L31.7636 34.1301L28.0366 29.0875L26.236 30.6761C26.1896 30.7027 26.1797 30.7392 26.1334 30.7658C25.5473 31.1947 24.848 31.3187 24.1082 31.1577C23.405 31.0066 21.2222 30.5335 16.9899 23.1609C15.9518 21.3526 12.7576 15.7884 13.6738 12.9814C13.9078 12.2615 14.4041 11.7299 15.0335 11.4302C15.0799 11.4036 15.1263 11.377 15.1628 11.3869L17.4425 10.633L14.9675 4.87176L10.2736 7.16568C9.21782 8.17246 9.025 16.2666 13.9494 24.8447Z" fill="#16579C"/>
</svg>
