<svg width="55" height="94" viewBox="0 0 55 94" fill="none" xmlns="http://www.w3.org/2000/svg">
<path d="M14.7867 71.4214C14.4059 70.5591 13.607 70 12.7432 70C11.8793 70 11.3219 70.3885 10.9968 70.8055C10.6717 70.3885 10.1143 70 9.25046 70C8.38657 70 7.58771 70.5591 7.20686 71.4214C6.81672 72.3216 6.98392 73.3166 7.66202 74.0936C9.28761 75.9604 10.7274 76.6946 10.746 76.7041C10.8203 76.7704 10.9039 76.7988 10.9968 76.7988C11.0897 76.7988 11.1733 76.7704 11.2476 76.7041C11.2662 76.6946 12.6967 75.9509 14.3316 74.0936C15.019 73.3166 15.1862 72.3216 14.7867 71.4214ZM13.7835 73.5914C12.5759 74.9654 11.4798 75.4627 11.0061 75.9081C10.5323 75.4532 9.43624 74.9654 8.22866 73.5819C7.74563 73.0228 7.62487 72.35 7.89425 71.7151C8.14506 71.1371 8.69311 70.7391 9.25975 70.7391C10.3651 70.7391 10.616 71.5825 10.6438 71.6867C10.681 71.8573 10.8296 71.971 10.9968 71.971C11.164 71.971 11.3126 71.8478 11.3591 71.6867C11.3869 71.592 11.6378 70.7391 12.7432 70.7391C13.3005 70.7391 13.8485 71.1276 14.1086 71.7151C14.3873 72.3595 14.2666 73.0323 13.7835 73.5914Z" fill="#16579C"/>
<path d="M35.7738 61.4746L35.5759 62.0503C35.4436 62.4352 35.8299 62.7947 36.2043 62.6351L41.5871 60.3409C44.1537 59.2469 44.7532 55.878 42.7215 53.9658L41.2009 52.5347C40.8155 52.172 40.1943 52.2545 39.917 52.7052C38.2174 55.467 36.8279 58.4079 35.7738 61.4746Z" stroke="#16579C" stroke-width="1.58898"/>
<path d="M42.0014 93.2202L41.631 87.6638C41.3658 83.6856 40.1863 79.8223 38.1843 76.3744L35.55 71.8375C34.8616 70.652 35.3453 69.1313 36.5921 68.5614L52.2813 61.3891C53.5152 60.8251 54.0043 59.3275 53.3411 58.1439L42.0804 38.0479C42.0283 37.955 41.9576 37.8738 41.8727 37.8094L37.0397 34.1481C36.5003 33.7395 36.7085 32.8841 37.3754 32.7691L39.9496 32.3253C40.5269 32.2257 40.7884 31.5456 40.4264 31.085L39.3646 29.7335C39.2002 29.5243 39.1548 29.2452 39.2446 28.9947L40.605 25.1968C42.5736 19.7011 41.7664 13.5929 38.4377 8.79732V8.79732C35.0285 3.88585 28.3463 2.54852 23.3096 5.7697L18.8375 8.62972C17.0407 9.77885 16.3723 12.0808 17.2743 14.0135L17.7682 15.0719C18.181 15.9565 18.277 16.9561 18.0403 17.9031L17.0698 21.7851C16.81 22.8244 16.9518 23.9235 17.4669 24.8629L18.9851 27.6314C19.5823 28.7203 20.7255 29.3972 21.9674 29.3972V29.3972C23.8459 29.3972 25.3688 30.9201 25.3688 32.7986V36.7466L15.0622 43.2955C11.4284 45.6045 11.7047 50.9954 15.5554 52.9208V52.9208C16.8976 53.5919 17.1065 55.4213 15.9503 56.3777L5.8718 64.7142C3.85788 66.3801 2.54176 68.7405 2.1833 71.3293L2.02239 72.4915C1.41071 76.9092 3.67178 81.2278 7.65091 83.2419L13.696 86.3018C15.5175 87.2238 16.6656 89.0918 16.6656 91.1334V93.2202" stroke="#16579C" stroke-width="2"/>
</svg>
