<svg width="69" height="75" viewBox="0 0 69 75" fill="none" xmlns="http://www.w3.org/2000/svg">
<path d="M60.6921 28.1205C56.9399 28.1205 53.8263 30.6559 53.2213 33.9705H53.1258C47.5485 33.9705 43.0112 38.1695 43.0112 43.3303V45.6293V54.8839V63.1791C43.0112 68.3399 38.4783 72.5389 32.9086 72.5389C27.3382 72.5389 22.8066 68.3399 22.8066 63.1791V40.8459C33.482 39.1722 41.7638 16.8267 42.9985 9.54063C43.321 7.63589 42.7039 5.72648 41.2612 4.16572C39.5258 2.29024 36.875 1.16998 34.1704 1.16998H30.6174C30.6174 0.524152 26.8286 0 26.8286 0C26.1307 0 25.5655 0.524152 25.5655 1.16998V3.50995C25.5655 4.15578 26.1313 4.67993 26.8286 4.67993C26.8286 4.67993 30.6174 4.15578 30.6174 3.50995H34.1704C36.1164 3.50995 38.0964 4.34415 39.3387 5.68729C40.0139 6.41853 40.7637 7.61717 40.4994 9.1791C39.0188 17.9148 30.0902 38.6094 21.5409 38.6094C12.9903 38.6094 4.06232 17.9148 2.58232 9.17852C2.31806 7.61717 3.06723 6.41853 3.74242 5.68787C4.98407 4.34415 6.96477 3.50995 8.91069 3.50995H12.9353C12.9353 4.15578 16.7241 4.67993 16.7241 4.67993C17.4214 4.67993 17.9873 4.15578 17.9873 3.50995V1.16998C17.9873 0.524152 17.4214 0 16.7241 0C16.7241 0 12.9353 0.524152 12.9353 1.16998H8.91069C6.20549 1.16998 3.55466 2.29024 1.82052 4.16689C0.377827 5.72765 -0.239204 7.63648 0.0838523 9.54121C1.31792 16.8273 9.5998 39.1722 20.2765 40.8464V63.1791C20.2765 69.6298 25.9429 74.8789 32.9073 74.8789C39.8723 74.8789 45.5387 69.6298 45.5387 63.1791V54.8839V45.6293V43.3303C45.5387 39.4594 48.9419 36.3104 53.1246 36.3104H53.2194C53.8244 39.6256 56.9399 42.1603 60.6908 42.1603C64.8735 42.1603 68.2766 39.0113 68.2766 35.1404C68.2779 31.2701 64.8747 28.1205 60.6921 28.1205ZM60.6921 40.9904C57.6391 40.9904 55.0857 38.9774 54.4977 36.3104H58.5147C58.9522 37.0066 59.7596 37.4804 60.6921 37.4804C62.0886 37.4804 63.2209 36.4327 63.2209 35.1404C63.2209 33.8482 62.0886 32.8005 60.6921 32.8005C59.7577 32.8005 58.9522 33.2743 58.5147 33.9705H54.4977C55.0857 31.3035 57.6391 29.2905 60.6921 29.2905C64.1787 29.2905 67.0135 31.9148 67.0135 35.1404C67.0135 38.3661 64.1787 40.9904 60.6921 40.9904Z" fill="#16579C"/>
</svg>
